Coordinates
version=1
nRows=7
nColumns=40
inDegrees=yes

Units are S.I. units (second, meters, Newtons, ...)
Angles are in degrees.

endheader
time	pelvis_tilt	pelvis_list	pelvis_rotation	pelvis_tx	pelvis_ty	pelvis_tz	hip_flexion_r	hip_adduction_r	hip_rotation_r	knee_angle_r	knee_angle_r_beta	ankle_angle_r	subtalar_angle_r	mtp_angle_r	hip_flexion_l	hip_adduction_l	hip_rotation_l	knee_angle_l	knee_angle_l_beta	ankle_angle_l	subtalar_angle_l	mtp_angle_l	lumbar_extension	lumbar_bending	lumbar_rotation	arm_flex_r	arm_add_r	arm_rot_r	elbow_flex_r	pro_sup_r	wrist_flex_r	wrist_dev_r	arm_flex_l	arm_add_l	arm_rot_l	elbow_flex_l	pro_sup_l	wrist_flex_l	wrist_dev_l
      0.99000000	     -7.12664860	     -1.92230513	      1.91208382	      1.47701691	      0.86808915	      0.27219611	     44.17196274	     -0.81949729	     -4.12806669	    -80.29683032	     -1.40144407	     -2.27211403	    -18.56280708	     20.19479734	      1.56788071	     -4.98886994	      4.45254909	    -31.08672299	     -0.54256567	      7.45213174	     -0.85791623	    -14.36547012	     -0.55737386	      0.63301058	     -8.30595228	    -34.54887030	    -19.48582931	      2.14496123	    101.29771413	     89.95437384	      0.00000000	      0.00000000	      3.05565834	     22.12555130	    -20.90228751	    124.22162475	     89.95437384	      0.00000000	      0.00000000
      1.00000000	     -7.26985835	     -2.52562510	      1.95390289	      1.51177432	      0.87500317	      0.27126295	     44.93138244	     -0.06947832	     -4.64072822	    -74.91900430	     -1.30758330	     -2.64286173	    -18.49294434	     21.04476330	     -1.05409778	     -4.07263958	      5.14417920	    -29.26050847	     -0.51069221	      2.55639676	     -0.13252624	    -12.91130820	      0.14936883	      1.50788053	     -9.16056978	    -37.21744521	    -19.58622386	      0.68499499	    103.07122041	     89.95437384	      0.00000000	      0.00000000	      4.50483762	     21.38772470	    -21.68429684	    126.38343762	     89.95437384	      0.00000000	      0.00000000
      1.01000000	     -7.53995044	     -2.98473407	      1.78626212	      1.54627917	      0.88187971	      0.27081573	     45.49291112	      0.75469527	     -4.86491483	    -68.97901681	     -1.20391096	     -3.97559519	    -18.37062046	     21.35726923	     -3.23454910	     -3.30253294	      6.02756479	    -27.58857459	     -0.48151146	     -3.17234634	      1.14684271	    -11.31912467	      0.93380418	      2.22437516	     -9.67226938	    -39.78872971	    -19.49383352	     -0.68998901	    104.65517766	     89.95437384	      0.00000000	      0.00000000	      5.89828034	     20.90859639	    -22.54005012	    128.42121481	     89.95437384	      0.00000000	      0.00000000
      1.02000000	     -7.49713054	     -3.67452073	      1.87124253	      1.58159557	      0.88912322	      0.26978757	     45.11998826	      1.65927267	     -5.33318132	    -62.43556947	     -1.08970626	     -5.61316327	    -18.18586622	     21.85699757	     -5.74616084	     -2.30908936	      6.58997237	    -25.56207054	     -0.44614229	     -9.80083086	      2.36851322	     -9.34867590	      1.46382360	      3.24189171	    -10.27499129	    -42.39165053	    -19.28570557	     -2.20978812	    106.17705961	     89.95437384	      0.00000000	      0.00000000	      7.13104726	     20.42042535	    -23.53914564	    130.23625742	     89.95437384	      0.00000000	      0.00000000
      1.03000000	     -7.66588879	     -4.25344488	      2.14602788	      1.61693335	      0.89553279	      0.26846413	     44.67466527	      2.33341724	     -5.81342196	    -55.63459139	     -0.97100680	     -8.37402402	    -17.83157227	     22.33529817	     -7.69362154	     -1.36343319	      7.10156511	    -23.63640516	     -0.41253309	    -17.55826731	      4.06152049	     -7.20274318	      2.28107800	      4.11501367	    -10.86326211	    -45.01296340	    -18.87140689	     -3.75385014	    107.54938987	     89.95437384	      0.00000000	      0.00000000	      8.29789840	     20.09953628	    -24.79188859	    131.82537578	     89.95437384	      0.00000000	      0.00000000
      1.04000000	     -7.63954717	     -4.66873896	      2.35142545	      1.65279393	      0.90151371	      0.26709211	     43.75584470	      2.89985207	     -6.20083019	    -48.76683662	     -0.85114186	    -11.86964103	    -17.35363105	     22.98215509	     -9.90991334	     -0.66394281	      7.03909061	    -21.42177534	     -0.37388051	    -24.39490208	      4.89356131	     -5.20756768	      2.88792556	      4.84323230	    -11.21800029	    -47.57111772	    -18.34662907	     -5.24933560	    108.80270577	     89.95437384	      0.00000000	      0.00000000	      9.28355524	     19.84629732	    -26.04933729	    133.32000654	     89.95437384	      0.00000000	      0.00000000
      1.05000000	     -7.47968743	     -4.97076950	      2.56035094	      1.68887065	      0.90658678	      0.26558132	     42.54566045	      3.28820211	     -6.72587034	    -42.05816224	     -0.73405341	    -15.62577535	    -16.52746464	     23.52961111	    -12.15832231	     -0.12454629	      6.35602894	    -19.53412325	     -0.34093477	    -29.22172346	      4.99445030	     -3.44945959	      3.37451211	      5.44654800	    -11.34277434	    -50.06695934	    -17.70507575	     -6.69631525	    109.97937830	     89.95437384	      0.00000000	      0.00000000	     10.23299369	     19.71269182	    -27.46882345	    134.58750033	     89.95437384	      0.00000000	      0.00000000
